<svg version="1.1" preserveAspectRatio="none" xmlns="http://www.w3.org/2000/svg" width="500" height="500" viewBox="0 0 500 500"><rect width="100%" height="100%" fill="#192537" fill-opacity="1"/><svg viewBox="144.5563 249.7004 336.7466 91.8664" width="417" height="113.75998688628184" x="41.5px" y="193.12px" xmlns="http://www.w3.org/2000/svg" xmlns:xlink="http://www.w3.org/1999/xlink" preserveAspectRatio="none"><defs></defs><style>.companyName {fill:#E9E9E9;fill-opacity:1;}.icon1 {fill:#B09E80;fill-opacity:0.98;}.icon2 {fill:#E9E9E9;fill-opacity:1;}.icon3 {fill:#716551;fill-opacity:1;}.icon3-str {stroke:#716551;stroke-opacity:1;}.shapeStroke-str {stroke:#E9E9E9;stroke-opacity:1;}</style><g opacity="1" transform="rotate(0 297.9296 249.7004)">
<svg width="30" height="23.7328" x="297.9296" y="249.7004" version="1.1" preserveAspectRatio="none" viewBox="25.9679012298584 30.976905822753903 48.06419372558594 38.023284912109375">
  <g transform="matrix(1 0 0 1 0 0)" class="icon1"><title>Artboard 265</title><path d="M32,69H68a2,2,0,0,0,2-1.67l4-24a2,2,0,0,0-3-2.07L58.93,48.17l-7.1-16a2,2,0,0,0-3.66,0l-7.1,16L29,41.26a2,2,0,0,0-3,2.07l4,24A2,2,0,0,0,32,69Zm9-16.26a2,2,0,0,0,1.61.16,2,2,0,0,0,1.21-1.09L50,37.92l6.17,13.89a2,2,0,0,0,1.21,1.09A2,2,0,0,0,59,52.74l10.34-5.91L66.31,65H33.69l-3-18.17Z"></path></g>
</svg>
</g><g opacity="1" transform="rotate(0 144.5563 265.5668)">
<svg width="138.3733" height="2" x="144.5563" y="265.5668" version="1.1" preserveAspectRatio="none" viewBox="0 0 138.3733 2">
  <rect x="0" y="0" width="138.3733" height="2" class="icon1 shapeStroke-str" style="stroke-width:0;" rx="0px" ry="0px" />
</svg>
</g><g opacity="1" transform="rotate(0 342.9296 265.5668)">
<svg width="138.3733" height="2" x="342.9296" y="265.5668" version="1.1" preserveAspectRatio="none" viewBox="0 0 138.3733 2">
  <rect x="0" y="0" width="138.3733" height="2" class="icon1 shapeStroke-str" style="stroke-width:0;" rx="0px" ry="0px" />
</svg>
</g><g opacity="1" transform="rotate(0 144.5563 291.5668)">
<svg width="336.7466" height="50" x="144.5563" y="291.5668" version="1.1" preserveAspectRatio="none" viewBox="0.6 -28.56 196.12 29.12">
  <g transform="matrix(1 0 0 1 0 0)" class="companyName"><path id="id-D6z1nYkh8" d="M36-0.40L36-0.40L36.64-0.40L36.64 0L27.96 0L27.96-0.36L28.56-0.36Q29.24-0.36 29.72-0.90Q30.20-1.44 30.12-2.08L30.12-2.08L28.32-22.20L19.92-3.52Q18.80-1.08 18.56 0.56L18.56 0.56L18.16 0.56L7.92-21.64L6.20-2.08Q6.12-1.44 6.60-0.90Q7.08-0.36 7.72-0.36L7.72-0.36L8.36-0.36L8.36 0L0.60 0L0.60-0.40L1.24-0.40Q2.36-0.40 3.18-1.08Q4-1.76 4.16-2.92L4.16-2.92L7.16-28.56L7.56-28.56L18.72-4.44L29.64-28.56L30-28.56L33.08-2.92Q33.28-1.32 34.68-0.68L34.68-0.68Q35.28-0.40 36-0.40Z M47.56-22.98Q50.64-24.56 54.34-24.56Q58.04-24.56 61.12-22.98Q64.20-21.40 66.02-18.52Q67.84-15.64 67.84-12Q67.84-8.36 66.02-5.48Q64.20-2.60 61.12-1.02Q58.04 0.56 54.80 0.56Q51.56 0.56 49.08-0.36Q46.60-1.28 44.78-2.92Q42.96-4.56 41.90-6.92Q40.84-9.28 40.84-12.46Q40.84-15.64 42.66-18.52Q44.48-21.40 47.56-22.98ZM46.82-3.82Q49.84-0.64 54.32-0.64Q58.80-0.64 61.84-3.82Q64.88-7 64.88-12Q64.88-17 61.84-20.18Q58.80-23.36 54.32-23.36Q49.84-23.36 46.82-20.18Q43.80-17 43.80-12Q43.80-7 46.82-3.82Z M99.60-12L99.60-12Q99.60-6.44 96.14-3.22Q92.68 0 86.76 0L86.76 0L73.40 0L73.40-0.40L73.92-0.40Q74.88-0.40 75.52-1.04Q76.16-1.68 76.20-2.56L76.20-2.56L76.20-21.44Q76.16-22.40 75.50-23Q74.84-23.60 73.88-23.60L73.88-23.60L73.40-23.60L73.40-24L86.76-24Q90.68-24 93.58-22.56Q96.48-21.12 98.04-18.40Q99.60-15.68 99.60-12ZM86.76-22.80L78.80-22.80L78.80-1.20L86.76-1.20Q91.36-1.20 94.04-4.10Q96.72-7 96.72-12L96.72-12Q96.72-17 94.04-19.90Q91.36-22.80 86.76-22.80L86.76-22.80Z M129.40-0.40L129.40-0.40L129.72-0.40L129.72 0L121.52 0L121.52-0.40L121.84-0.40Q122.60-0.40 123.00-0.92Q123.40-1.44 123.40-1.90Q123.40-2.36 123.24-2.80L123.24-2.80L121.04-8.12L110.92-8.12L108.72-2.92Q108.52-2.40 108.52-1.94Q108.52-1.48 108.92-0.94Q109.32-0.40 110.12-0.40L110.12-0.40L110.44-0.40L110.44 0L102.80 0L102.80-0.40L103.12-0.40Q103.96-0.40 104.82-0.98Q105.68-1.56 106.24-2.72L106.24-2.72Q115.00-21.44 115.36-22.32L115.36-22.32Q116.04-24 116.08-24.56L116.08-24.56L116.44-24.56L126.32-2.72Q127.48-0.40 129.40-0.40ZM116.08-20.28L111.44-9.32L120.56-9.32L116.08-20.28Z M153.64-28.56L153.64-28.56Q157.64-28.56 160.02-26.44Q162.40-24.32 162.40-20.64L162.40-20.64Q162.40-18.36 161.28-16L161.28-16Q160.04-13.44 158.80-11.88Q157.56-10.32 156.76-9.36Q155.96-8.40 154.92-7.30Q153.88-6.20 153.14-5.44Q152.40-4.68 151.42-3.70Q150.44-2.72 149.96-2.24L149.96-2.24L159.16-2.24Q160.88-2.24 161.82-2.96Q162.76-3.68 163.84-5.64L163.84-5.64L164.24-5.64L162.32 0L145.92 0L145.92-0.40Q150.16-4.32 154.36-9.68L154.36-9.68Q156.56-12.52 157.98-15.42Q159.40-18.32 159.40-20.48L159.40-20.48Q159.40-23.72 157.88-25.54Q156.36-27.36 153.76-27.36L153.76-27.36Q150.84-27.36 149.18-25.80Q147.52-24.24 147.60-21.44L147.60-21.44L147.20-21.40L146.48-25.96Q148.04-27.52 151.00-28.24L151.00-28.24Q152.36-28.56 153.64-28.56Z M172.52-0.36Q172.00 0.16 171.24 0.16Q170.48 0.16 169.96-0.36Q169.44-0.88 169.44-1.64Q169.44-2.40 169.96-2.92Q170.48-3.44 171.24-3.44Q172.00-3.44 172.52-2.92Q173.04-2.40 173.04-1.64Q173.04-0.88 172.52-0.36Z M180.44-24.66Q182.96-28.56 187.32-28.56Q191.68-28.56 194.20-24.66Q196.72-20.76 196.72-14Q196.72-7.24 194.20-3.34Q191.68 0.56 187.32 0.56Q182.96 0.56 180.44-3.34Q177.92-7.24 177.92-14Q177.92-20.76 180.44-24.66ZM192.16-23.78Q190.40-27.36 187.32-27.36Q184.24-27.36 182.48-23.78Q180.72-20.20 180.72-14Q180.72-7.80 182.48-4.22Q184.24-0.64 187.32-0.64Q190.40-0.64 192.16-4.22Q193.92-7.80 193.92-14Q193.92-20.20 192.16-23.78Z"/></g>
</svg>
</g></svg></svg>